<svg xmlns="http://www.w3.org/2000/svg" xmlns:xlink="http://www.w3.org/1999/xlink" width="96" zoomAndPan="magnify" viewBox="0 0 72 72" height="96" preserveAspectRatio="xMidYMid meet" version="1.0"><defs><g/><clipPath id="bf773d4446"><rect x="0" width="32" y="0" height="52"/></clipPath></defs><g fill="#555454" fill-opacity="1"><g transform="translate(27.741038, 47.291142)"><g><path d="M 1.84375 -35.796875 C 3.027344 -36.472656 4.144531 -36.972656 5.195312 -37.289062 C 6.339844 -37.640625 7.433594 -37.816406 8.46875 -37.816406 C 10.324219 -37.816406 11.964844 -37.363281 13.402344 -36.457031 C 14.566406 -35.722656 15.558594 -34.832031 16.378906 -33.777344 C 17.03125 -32.941406 17.574219 -32.132812 18.007812 -31.355469 L 22.761719 -23 L 18.886719 -16.007812 L 15.1875 -18.058594 L 17.574219 -21.546875 L 18.5 -20.914062 L 16.113281 -17.425781 L 12.441406 -19.53125 L 19.285156 -31.457031 L 19.316406 -31.507812 C 19.746094 -32.210938 20.253906 -32.949219 20.84375 -33.726562 C 21.65625 -34.800781 22.652344 -35.710938 23.835938 -36.457031 C 25.269531 -37.363281 26.914062 -37.816406 28.765625 -37.816406 C 29.84375 -37.816406 30.953125 -37.636719 32.09375 -37.28125 C 33.117188 -36.964844 34.214844 -36.46875 35.390625 -35.796875 C 37.53125 -34.566406 39.089844 -33.175781 40.066406 -31.621094 C 41.109375 -29.957031 41.617188 -28.242188 41.585938 -26.476562 C 41.5625 -25.019531 41.277344 -23.632812 40.734375 -22.3125 C 40.320312 -21.3125 39.886719 -20.417969 39.4375 -19.640625 L 29.113281 -0.882812 C 28.210938 0.710938 26.949219 2.042969 25.332031 3.113281 C 23.570312 4.277344 21.324219 4.863281 18.59375 4.863281 C 15.765625 4.863281 13.484375 4.261719 11.753906 3.0625 C 10.21875 1.996094 9.019531 0.699219 8.148438 -0.835938 L -2.246094 -19.71875 C -2.667969 -20.445312 -3.082031 -21.3125 -3.496094 -22.3125 C -4.039062 -23.632812 -4.324219 -25.019531 -4.351562 -26.476562 C -4.382812 -28.242188 -3.875 -29.957031 -2.828125 -31.621094 C -1.855469 -33.175781 -0.300781 -34.566406 1.835938 -35.792969 Z M 6.050781 -28.457031 C 5.519531 -28.15625 5.089844 -27.859375 4.765625 -27.578125 C 4.554688 -27.398438 4.410156 -27.246094 4.335938 -27.128906 C 4.230469 -26.960938 4.160156 -26.816406 4.125 -26.699219 C 4.113281 -26.660156 4.105469 -26.636719 4.105469 -26.625 C 4.113281 -26.234375 4.1875 -25.871094 4.324219 -25.535156 C 4.59375 -24.882812 4.875 -24.300781 5.164062 -23.796875 L 15.507812 -5.003906 C 15.742188 -4.59375 16.097656 -4.21875 16.574219 -3.890625 C 16.640625 -3.84375 16.78125 -3.796875 17 -3.746094 C 17.417969 -3.644531 17.949219 -3.597656 18.59375 -3.597656 C 19.203125 -3.597656 19.714844 -3.644531 20.128906 -3.742188 C 20.375 -3.800781 20.554688 -3.867188 20.664062 -3.941406 C 21.15625 -4.265625 21.503906 -4.605469 21.703125 -4.960938 L 32.117188 -23.875 C 32.378906 -24.328125 32.644531 -24.882812 32.914062 -25.535156 C 33.050781 -25.871094 33.121094 -26.234375 33.128906 -26.625 C 33.128906 -26.636719 33.125 -26.660156 33.113281 -26.699219 C 33.074219 -26.816406 33.003906 -26.960938 32.898438 -27.128906 C 32.824219 -27.246094 32.683594 -27.398438 32.472656 -27.578125 C 32.144531 -27.859375 31.71875 -28.152344 31.195312 -28.453125 C 30.554688 -28.820312 30.015625 -29.070312 29.578125 -29.207031 C 29.257812 -29.308594 28.988281 -29.355469 28.765625 -29.355469 C 28.542969 -29.355469 28.402344 -29.339844 28.34375 -29.300781 C 28.035156 -29.105469 27.78125 -28.878906 27.589844 -28.625 C 27.171875 -28.070312 26.820312 -27.5625 26.535156 -27.097656 L 22.925781 -29.300781 L 26.59375 -27.199219 L 17.5 -11.351562 L 9.621094 -16.742188 L 14.214844 -25.023438 L 17.914062 -22.972656 L 14.238281 -20.882812 L 10.613281 -27.25 C 10.394531 -27.640625 10.09375 -28.082031 9.710938 -28.574219 C 9.496094 -28.851562 9.222656 -29.09375 8.890625 -29.300781 C 8.832031 -29.339844 8.691406 -29.355469 8.46875 -29.355469 C 8.273438 -29.355469 8 -29.304688 7.65625 -29.199219 C 7.214844 -29.0625 6.675781 -28.816406 6.039062 -28.453125 Z M 28.035156 -35.285156 C 29.402344 -35.285156 30.726562 -34.96875 32.011719 -34.34375 C 32.90625 -33.90625 33.769531 -33.398438 34.597656 -32.816406 L 36.707031 -31.335938 L 36.964844 -31.074219 C 36.429688 -31.613281 35.800781 -31.96875 35.074219 -32.152344 C 34.769531 -32.226562 34.46875 -32.265625 34.167969 -32.265625 C 33.21875 -32.265625 32.375 -31.953125 31.640625 -31.332031 C 31.023438 -30.8125 30.613281 -30.171875 30.40625 -29.417969 C 30.15625 -28.5 30.234375 -27.609375 30.644531 -26.742188 C 30.945312 -26.113281 31.367188 -25.617188 31.921875 -25.25 L 28.886719 -27.265625 C 28.542969 -27.492188 28.257812 -27.605469 28.035156 -27.605469 C 28.136719 -27.605469 28.226562 -27.621094 28.304688 -27.65625 L 28.300781 -27.652344 C 28.257812 -27.621094 28.207031 -27.578125 28.148438 -27.523438 L 25.214844 -30.566406 L 29.316406 -29.542969 C 29.558594 -30.511719 29.429688 -31.429688 28.933594 -32.300781 C 28.59375 -32.898438 28.117188 -33.375 27.515625 -33.726562 C 26.90625 -34.082031 26.25 -34.261719 25.554688 -34.261719 C 25.027344 -34.261719 24.53125 -34.167969 24.070312 -33.984375 C 24 -33.957031 23.945312 -33.933594 23.90625 -33.914062 L 25.796875 -30.128906 L 22.808594 -33.121094 C 23.621094 -33.933594 24.519531 -34.511719 25.503906 -34.855469 C 26.328125 -35.140625 27.171875 -35.285156 28.035156 -35.285156 Z M 28.035156 -26.824219 C 28.125 -26.824219 28.207031 -26.839844 28.28125 -26.867188 C 28.519531 -26.949219 28.6875 -27.039062 28.789062 -27.140625 L 28.304688 -26.652344 L 27.6875 -26.347656 C 26.964844 -25.984375 26.253906 -25.804688 25.554688 -25.804688 C 24.726562 -25.804688 23.960938 -26.007812 23.253906 -26.421875 C 22.550781 -26.832031 21.996094 -27.390625 21.589844 -28.105469 C 20.964844 -29.203125 20.804688 -30.363281 21.109375 -31.59375 L 21.40625 -32.773438 L 22.28125 -33.613281 C 23.976562 -35.246094 25.894531 -36.0625 28.035156 -36.0625 C 29.957031 -36.0625 31.796875 -35.476562 33.5625 -34.308594 L 36.613281 -32.285156 C 37.359375 -31.789062 37.917969 -31.148438 38.289062 -30.363281 C 38.773438 -29.34375 38.863281 -28.289062 38.566406 -27.191406 C 38.3125 -26.257812 37.824219 -25.484375 37.101562 -24.875 C 36.261719 -24.164062 35.285156 -23.808594 34.167969 -23.808594 C 32.90625 -23.808594 31.84375 -24.238281 30.984375 -25.09375 L 33.976562 -28.085938 L 31.542969 -24.625 L 29.75 -25.886719 C 29.28125 -26.214844 28.796875 -26.5 28.296875 -26.742188 C 28.1875 -26.796875 28.097656 -26.824219 28.035156 -26.824219 Z M 6.148438 -26.449219 C 6.1875 -26.792969 6.175781 -27.140625 6.109375 -27.496094 C 5.992188 -28.117188 5.738281 -28.679688 5.347656 -29.183594 C 4.898438 -29.761719 4.335938 -30.179688 3.660156 -30.445312 C 3.210938 -30.621094 2.753906 -30.707031 2.289062 -30.707031 C 1.671875 -30.707031 1.089844 -30.570312 0.542969 -30.296875 C 0.183594 -30.117188 -0.136719 -29.890625 -0.410156 -29.617188 L 2.578125 -26.625 L -1.058594 -28.78125 C 0.078125 -30.695312 1.519531 -32.191406 3.265625 -33.261719 C 5.015625 -34.332031 7 -34.9375 9.222656 -35.082031 L 9.492188 -30.859375 L 8.464844 -34.960938 C 7.695312 -34.769531 7.042969 -34.347656 6.507812 -33.699219 C 6.117188 -33.226562 5.851562 -32.6875 5.710938 -32.085938 C 5.597656 -31.601562 5.578125 -31.117188 5.652344 -30.628906 C 5.722656 -30.175781 5.871094 -29.742188 6.101562 -29.335938 C 6.382812 -28.835938 6.757812 -28.417969 7.222656 -28.082031 C 7.886719 -27.601562 8.613281 -27.359375 9.394531 -27.359375 L 9.394531 -31.589844 L 9.648438 -27.367188 C 8.753906 -27.316406 7.992188 -27.085938 7.355469 -26.683594 C 6.675781 -26.25 6.089844 -25.613281 5.585938 -24.765625 L 1.945312 -26.917969 Z M -2.257812 -27.382812 L -2.15625 -28.285156 L -1.695312 -29.070312 C -0.507812 -31.078125 0.996094 -32.660156 2.816406 -33.820312 C 4.679688 -35.007812 6.789062 -35.671875 9.140625 -35.8125 L 9.265625 -35.820312 L 9.394531 -35.820312 C 10.4375 -35.820312 11.363281 -35.527344 12.175781 -34.9375 C 12.710938 -34.550781 13.144531 -34.066406 13.46875 -33.488281 C 13.746094 -33.003906 13.925781 -32.476562 14.011719 -31.917969 C 14.101562 -31.328125 14.082031 -30.746094 13.949219 -30.171875 C 13.789062 -29.484375 13.484375 -28.867188 13.035156 -28.324219 C 12.386719 -27.539062 11.546875 -27.015625 10.515625 -26.757812 L 10.144531 -26.664062 L 9.761719 -26.640625 C 8.933594 -26.585938 8.242188 -26.390625 7.683594 -26.050781 C 7.128906 -25.707031 6.640625 -25.183594 6.21875 -24.46875 L 5.945312 -24.011719 L 5.570312 -23.636719 C 5.199219 -23.261719 4.78125 -22.960938 4.324219 -22.734375 C 3.679688 -22.410156 3.003906 -22.25 2.289062 -22.25 C 1.691406 -22.25 1.121094 -22.355469 0.578125 -22.566406 C -0.1875 -22.867188 -0.824219 -23.34375 -1.332031 -23.992188 C -2.089844 -24.96875 -2.398438 -26.101562 -2.257812 -27.382812 Z M 14.117188 0.140625 C 14.675781 0.140625 15.21875 0.0117188 15.746094 -0.238281 C 16.667969 -0.679688 17.320312 -1.371094 17.714844 -2.316406 C 17.992188 -2.976562 18.082031 -3.652344 17.984375 -4.34375 C 17.945312 -4.628906 17.875 -4.890625 17.777344 -5.132812 L 13.871094 -3.503906 L 16.953125 -6.402344 C 17.195312 -6.144531 17.503906 -5.902344 17.875 -5.683594 C 17.914062 -5.660156 17.945312 -5.644531 17.96875 -5.640625 C 17.964844 -5.640625 17.960938 -5.640625 17.960938 -5.640625 C 17.871094 -5.640625 17.792969 -5.628906 17.71875 -5.609375 L 18.933594 -1.558594 L 16.589844 -5.078125 C 16.117188 -4.761719 15.734375 -4.34375 15.445312 -3.816406 C 14.980469 -2.984375 14.84375 -2.101562 15.03125 -1.167969 C 15.144531 -0.59375 15.375 -0.0742188 15.722656 0.398438 C 16.066406 0.867188 16.488281 1.238281 16.992188 1.519531 C 17.554688 1.832031 18.140625 1.988281 18.738281 1.988281 L 18.738281 -2.238281 L 19.765625 1.863281 C 19.46875 1.9375 19.171875 1.992188 18.875 2.03125 C 18.570312 2.066406 18.265625 2.085938 17.960938 2.085938 C 16.492188 2.085938 15.113281 1.695312 13.824219 0.917969 C 12.875 0.339844 12.039062 -0.332031 11.316406 -1.105469 L 14.40625 -3.992188 L 12.515625 -0.207031 C 12.980469 0.0234375 13.515625 0.140625 14.117188 0.140625 Z M 14.117188 -8.316406 C 14.847656 -8.316406 15.574219 -8.136719 16.300781 -7.773438 L 16.980469 -7.433594 L 17.5 -6.875 C 17.6875 -6.675781 17.921875 -6.488281 18.203125 -6.320312 C 18.148438 -6.355469 18.066406 -6.371094 17.960938 -6.371094 C 17.914062 -6.371094 17.871094 -6.367188 17.824219 -6.363281 C 17.785156 -6.359375 17.75 -6.351562 17.714844 -6.34375 L 18.21875 -6.46875 L 18.738281 -6.46875 C 19.601562 -6.46875 20.386719 -6.269531 21.097656 -5.875 C 21.671875 -5.554688 22.15625 -5.132812 22.542969 -4.601562 C 22.933594 -4.070312 23.195312 -3.476562 23.324219 -2.824219 C 23.542969 -1.726562 23.382812 -0.691406 22.839844 0.289062 C 22.464844 0.960938 21.945312 1.515625 21.28125 1.960938 L 20.753906 2.3125 L 20.148438 2.492188 C 19.429688 2.710938 18.699219 2.816406 17.960938 2.816406 C 16.410156 2.816406 14.949219 2.410156 13.570312 1.597656 C 12.511719 0.972656 11.585938 0.238281 10.792969 -0.605469 L 10.265625 -1.167969 L 9.96875 -1.878906 C 9.4375 -3.15625 9.414062 -4.386719 9.90625 -5.570312 C 10.339844 -6.609375 11.066406 -7.375 12.089844 -7.863281 C 12.71875 -8.167969 13.394531 -8.316406 14.117188 -8.316406 Z M 35.289062 -31.292969 C 34.847656 -31.292969 34.417969 -31.222656 33.996094 -31.082031 C 33.375 -30.875 32.835938 -30.539062 32.371094 -30.078125 C 32.851562 -30.558594 33.410156 -30.902344 34.054688 -31.117188 C 34.5 -31.265625 34.960938 -31.339844 35.433594 -31.339844 L 35.433594 -27.113281 L 34.410156 -31.214844 C 33.683594 -31.03125 33.058594 -30.640625 32.53125 -30.042969 C 32.113281 -29.5625 31.824219 -29.011719 31.671875 -28.394531 C 31.539062 -27.863281 31.515625 -27.335938 31.605469 -26.804688 C 31.753906 -25.910156 32.175781 -25.15625 32.871094 -24.550781 C 33.433594 -24.054688 34.074219 -23.757812 34.789062 -23.65625 L 35.386719 -27.84375 L 35.386719 -23.613281 C 36.035156 -23.613281 36.65625 -23.761719 37.242188 -24.054688 C 37.90625 -24.386719 38.445312 -24.863281 38.859375 -25.484375 C 39.332031 -26.191406 39.566406 -26.96875 39.566406 -27.816406 C 39.566406 -27.066406 39.378906 -26.367188 39.007812 -25.714844 C 38.71875 -25.207031 38.339844 -24.777344 37.871094 -24.425781 C 37.410156 -24.078125 36.898438 -23.835938 36.339844 -23.695312 C 35.988281 -23.609375 35.621094 -23.5625 35.242188 -23.5625 L 35.242188 -27.792969 L 35.839844 -23.605469 C 36.765625 -23.738281 37.550781 -24.171875 38.1875 -24.90625 C 38.585938 -25.367188 38.863281 -25.890625 39.019531 -26.472656 C 39.132812 -26.898438 39.171875 -27.324219 39.140625 -27.753906 C 39.070312 -28.6875 38.695312 -29.492188 38.019531 -30.167969 C 37.414062 -30.773438 36.703125 -31.132812 35.886719 -31.25 L 35.289062 -27.0625 Z M 35.289062 -22.835938 L 34.988281 -22.835938 L 34.691406 -22.875 C 33.648438 -23.027344 32.761719 -23.464844 32.039062 -24.1875 C 31.238281 -24.988281 30.796875 -25.957031 30.707031 -27.105469 C 30.667969 -27.636719 30.714844 -28.160156 30.851562 -28.664062 C 31.03125 -29.332031 31.34375 -29.925781 31.796875 -30.449219 C 32.539062 -31.304688 33.488281 -31.816406 34.644531 -31.980469 L 34.941406 -32.023438 L 35.242188 -32.023438 C 34.925781 -32.023438 34.609375 -31.980469 34.289062 -31.902344 C 33.742188 -31.765625 33.246094 -31.527344 32.792969 -31.191406 C 32.328125 -30.839844 31.953125 -30.414062 31.664062 -29.910156 C 31.292969 -29.261719 31.109375 -28.566406 31.109375 -27.816406 C 31.109375 -28.675781 31.347656 -29.460938 31.824219 -30.175781 C 32.238281 -30.800781 32.785156 -31.28125 33.457031 -31.617188 C 34.0625 -31.921875 34.703125 -32.070312 35.386719 -32.070312 L 35.6875 -32.070312 L 35.984375 -32.027344 C 36.925781 -31.894531 37.746094 -31.523438 38.4375 -30.914062 C 39.261719 -30.195312 39.765625 -29.289062 39.949219 -28.195312 C 40.050781 -27.570312 40.027344 -26.953125 39.875 -26.34375 C 39.699219 -25.640625 39.375 -25.019531 38.898438 -24.472656 C 38.257812 -23.742188 37.449219 -23.253906 36.460938 -23.007812 L 35.957031 -22.882812 L 35.433594 -22.882812 C 35.875 -22.882812 36.308594 -22.953125 36.730469 -23.09375 C 37.347656 -23.300781 37.890625 -23.632812 38.351562 -24.097656 C 37.875 -23.617188 37.3125 -23.273438 36.667969 -23.058594 C 36.222656 -22.910156 35.761719 -22.835938 35.289062 -22.835938 Z M 20.347656 1.84375 C 20.945312 1.84375 21.519531 1.710938 22.066406 1.445312 C 22.9375 1.023438 23.578125 0.371094 23.988281 -0.503906 C 24.28125 -1.132812 24.40625 -1.785156 24.359375 -2.460938 C 24.339844 -2.777344 24.28125 -3.074219 24.1875 -3.355469 C 24.050781 -3.765625 23.824219 -4.152344 23.511719 -4.515625 C 23.183594 -4.894531 22.792969 -5.199219 22.34375 -5.433594 C 21.761719 -5.734375 21.144531 -5.882812 20.492188 -5.882812 C 19.535156 -5.882812 18.691406 -5.589844 17.960938 -5.007812 C 17.722656 -4.816406 17.519531 -4.609375 17.351562 -4.386719 L 17.53125 -4.628906 L 17.746094 -4.839844 C 17.300781 -4.394531 16.976562 -3.871094 16.773438 -3.269531 C 16.589844 -2.710938 16.527344 -2.144531 16.59375 -1.566406 C 16.660156 -0.957031 16.851562 -0.414062 17.167969 0.0585938 L 20.6875 -2.289062 L 18.339844 1.230469 C 18.953125 1.640625 19.621094 1.84375 20.347656 1.84375 Z M 20.347656 -6.613281 C 21.328125 -6.613281 22.226562 -6.34375 23.03125 -5.804688 L 23.738281 -5.335938 L 24.207031 -4.632812 C 24.652344 -3.964844 24.914062 -3.253906 25 -2.5 C 25.070312 -1.847656 25.003906 -1.210938 24.800781 -0.59375 C 24.578125 0.0664062 24.222656 0.644531 23.726562 1.140625 L 20.734375 -1.851562 L 24.117188 0.6875 C 23.855469 1.039062 23.5625 1.34375 23.242188 1.597656 C 22.429688 2.25 21.511719 2.574219 20.492188 2.574219 C 19.773438 2.574219 19.09375 2.410156 18.457031 2.078125 C 17.945312 1.816406 17.5 1.464844 17.121094 1.023438 C 16.699219 0.539062 16.382812 -0.03125 16.164062 -0.683594 C 15.769531 -1.871094 15.820312 -3.003906 16.324219 -4.082031 C 16.761719 -5.019531 17.449219 -5.71875 18.382812 -6.167969 C 18.996094 -6.464844 19.652344 -6.613281 20.347656 -6.613281 Z M 10.855469 -27.265625 C 11.691406 -27.265625 12.453125 -27.492188 13.140625 -27.949219 C 13.347656 -28.089844 13.535156 -28.238281 13.699219 -28.40625 L 13.296875 -28.003906 L 12.808594 -27.722656 C 13.058594 -27.867188 13.296875 -28.046875 13.515625 -28.261719 C 14 -28.730469 14.339844 -29.289062 14.542969 -29.9375 C 14.835938 -30.871094 14.796875 -31.789062 14.429688 -32.695312 C 14.195312 -33.273438 13.851562 -33.761719 13.394531 -34.167969 C 13.164062 -34.371094 12.898438 -34.546875 12.601562 -34.6875 C 12.097656 -34.921875 11.566406 -35.039062 11 -35.039062 C 10.378906 -35.039062 9.785156 -34.890625 9.210938 -34.589844 C 8.722656 -34.335938 8.304688 -33.992188 7.953125 -33.566406 C 7.585938 -33.117188 7.328125 -32.613281 7.175781 -32.058594 C 6.984375 -31.359375 6.984375 -30.675781 7.167969 -30 C 7.234375 -29.75 7.324219 -29.523438 7.433594 -29.320312 L 11.148438 -31.347656 L 8.15625 -28.355469 C 8.320312 -28.191406 8.496094 -28.046875 8.679688 -27.925781 C 9.339844 -27.484375 10.066406 -27.265625 10.855469 -27.265625 Z M 10.855469 -35.722656 C 11.773438 -35.722656 12.613281 -35.46875 13.371094 -34.960938 C 13.652344 -34.777344 13.90625 -34.566406 14.136719 -34.335938 L 14.566406 -33.90625 L 14.859375 -33.371094 C 15.5 -32.195312 15.660156 -31.015625 15.335938 -29.832031 C 15.171875 -29.230469 14.894531 -28.691406 14.5 -28.207031 C 14.121094 -27.746094 13.667969 -27.375 13.136719 -27.097656 C 12.480469 -26.753906 11.765625 -26.582031 11 -26.582031 C 9.800781 -26.582031 8.722656 -27.003906 7.777344 -27.84375 C 7.25 -28.316406 6.855469 -28.871094 6.59375 -29.511719 C 6.199219 -30.480469 6.160156 -31.464844 6.472656 -32.460938 C 6.820312 -33.585938 7.535156 -34.453125 8.609375 -35.066406 L 10.707031 -31.394531 L 7.71875 -34.386719 C 8.609375 -35.277344 9.652344 -35.722656 10.855469 -35.722656 Z M 10.855469 -35.722656 "/></g></g></g><g fill="#5ce1e6" fill-opacity="1"><g transform="translate(27.741038, 47.291142)"><g><path d="M 3.9375 -32.125 C 4.851562 -32.644531 5.679688 -33.015625 6.421875 -33.234375 C 7.171875 -33.460938 7.851562 -33.578125 8.46875 -33.578125 C 9.507812 -33.578125 10.398438 -33.34375 11.140625 -32.875 C 11.890625 -32.40625 12.523438 -31.835938 13.046875 -31.171875 C 13.566406 -30.503906 13.988281 -29.878906 14.3125 -29.296875 L 17.90625 -22.96875 L 15.1875 -18.0625 L 16.109375 -17.421875 L 22.921875 -29.296875 C 23.273438 -29.878906 23.703125 -30.503906 24.203125 -31.171875 C 24.710938 -31.835938 25.335938 -32.40625 26.078125 -32.875 C 26.828125 -33.34375 27.722656 -33.578125 28.765625 -33.578125 C 29.410156 -33.578125 30.097656 -33.460938 30.828125 -33.234375 C 31.554688 -33.015625 32.378906 -32.644531 33.296875 -32.125 C 34.816406 -31.25 35.875 -30.332031 36.46875 -29.375 C 37.070312 -28.414062 37.363281 -27.472656 37.34375 -26.546875 C 37.332031 -25.617188 37.15625 -24.742188 36.8125 -23.921875 C 36.476562 -23.097656 36.132812 -22.375 35.78125 -21.75 L 25.40625 -2.921875 C 24.851562 -1.941406 24.050781 -1.101562 23 -0.40625 C 21.945312 0.28125 20.476562 0.625 18.59375 0.625 C 16.644531 0.625 15.164062 0.28125 14.15625 -0.40625 C 13.15625 -1.101562 12.378906 -1.941406 11.828125 -2.921875 L 1.453125 -21.75 C 1.097656 -22.375 0.75 -23.097656 0.40625 -23.921875 C 0.0703125 -24.742188 -0.0976562 -25.617188 -0.109375 -26.546875 C -0.128906 -27.472656 0.15625 -28.414062 0.75 -29.375 C 1.351562 -30.332031 2.414062 -31.25 3.9375 -32.125 Z M 28.03125 -31.046875 C 28.75 -31.046875 29.457031 -30.875 30.15625 -30.53125 C 30.851562 -30.195312 31.523438 -29.800781 32.171875 -29.34375 C 32.816406 -28.894531 33.414062 -28.472656 33.96875 -28.078125 C 34 -28.046875 34.066406 -28.03125 34.171875 -28.03125 C 34.328125 -28.03125 34.429688 -28.117188 34.484375 -28.296875 C 34.535156 -28.484375 34.460938 -28.640625 34.265625 -28.765625 C 33.296875 -29.410156 32.28125 -30.082031 31.21875 -30.78125 C 30.164062 -31.476562 29.101562 -31.828125 28.03125 -31.828125 C 27.03125 -31.828125 26.09375 -31.40625 25.21875 -30.5625 C 25.175781 -30.4375 25.1875 -30.316406 25.25 -30.203125 C 25.320312 -30.085938 25.421875 -30.03125 25.546875 -30.03125 C 25.578125 -30.03125 25.660156 -30.0625 25.796875 -30.125 C 26.148438 -30.476562 26.515625 -30.71875 26.890625 -30.84375 C 27.265625 -30.976562 27.644531 -31.046875 28.03125 -31.046875 Z M 1.953125 -26.921875 C 1.910156 -26.628906 2.019531 -26.484375 2.28125 -26.484375 C 2.382812 -26.484375 2.484375 -26.53125 2.578125 -26.625 C 4.140625 -29.25 6.441406 -30.660156 9.484375 -30.859375 C 9.742188 -30.921875 9.859375 -31.054688 9.828125 -31.265625 C 9.796875 -31.484375 9.648438 -31.59375 9.390625 -31.59375 C 7.765625 -31.488281 6.328125 -31.039062 5.078125 -30.25 C 3.835938 -29.457031 2.796875 -28.347656 1.953125 -26.921875 Z M 14.109375 -4.09375 C 13.785156 -4.09375 13.707031 -3.894531 13.875 -3.5 C 14.394531 -2.945312 15.007812 -2.457031 15.71875 -2.03125 C 16.4375 -1.613281 17.179688 -1.40625 17.953125 -1.40625 C 18.285156 -1.40625 18.613281 -1.457031 18.9375 -1.5625 C 19.125 -1.6875 19.203125 -1.828125 19.171875 -1.984375 C 19.140625 -2.148438 18.992188 -2.234375 18.734375 -2.234375 C 18.609375 -2.203125 18.476562 -2.175781 18.34375 -2.15625 C 18.21875 -2.144531 18.085938 -2.140625 17.953125 -2.140625 C 17.273438 -2.140625 16.628906 -2.328125 16.015625 -2.703125 C 15.398438 -3.078125 14.863281 -3.503906 14.40625 -3.984375 C 14.28125 -4.054688 14.179688 -4.09375 14.109375 -4.09375 Z M 35.28125 -27.0625 C 35.3125 -27.0625 35.335938 -27.066406 35.359375 -27.078125 C 35.378906 -27.097656 35.40625 -27.109375 35.4375 -27.109375 C 35.695312 -27.171875 35.804688 -27.300781 35.765625 -27.5 C 35.734375 -27.695312 35.609375 -27.8125 35.390625 -27.84375 C 35.347656 -27.84375 35.328125 -27.832031 35.328125 -27.8125 C 35.328125 -27.800781 35.296875 -27.796875 35.234375 -27.796875 C 35.003906 -27.765625 34.898438 -27.640625 34.921875 -27.421875 C 34.941406 -27.210938 35.0625 -27.09375 35.28125 -27.0625 Z M 20.34375 -2.390625 C 20.144531 -2.390625 20.085938 -2.265625 20.171875 -2.015625 C 20.253906 -1.773438 20.359375 -1.65625 20.484375 -1.65625 C 20.554688 -1.65625 20.640625 -1.71875 20.734375 -1.84375 C 20.828125 -1.945312 20.8125 -2.09375 20.6875 -2.28125 C 20.59375 -2.351562 20.476562 -2.390625 20.34375 -2.390625 Z M 10.859375 -31.484375 C 10.828125 -31.484375 10.773438 -31.453125 10.703125 -31.390625 C 10.472656 -31.265625 10.429688 -31.132812 10.578125 -31 C 10.734375 -30.875 10.875 -30.8125 11 -30.8125 C 11.289062 -30.8125 11.335938 -30.988281 11.140625 -31.34375 C 11.109375 -31.375 11.066406 -31.40625 11.015625 -31.4375 C 10.972656 -31.46875 10.921875 -31.484375 10.859375 -31.484375 Z M 10.859375 -31.484375 "/></g></g></g><g transform="matrix(1, 0, 0, 1, 1, 8)"><g clip-path="url(#bf773d4446)"><g fill="#555454" fill-opacity="1"><g transform="translate(5.573187, 39.301703)"><g><path d="M 13.144531 -37.839844 C 15.550781 -37.839844 17.558594 -37.433594 19.164062 -36.617188 C 20.898438 -35.738281 22.203125 -34.554688 23.078125 -33.074219 C 23.824219 -31.816406 24.300781 -30.484375 24.507812 -29.078125 C 24.667969 -28.003906 24.746094 -27.007812 24.746094 -26.089844 L 24.746094 -7.933594 C 24.746094 -6.492188 24.574219 -5.089844 24.234375 -3.726562 C 23.804688 -2.011719 22.980469 -0.492188 21.761719 0.832031 C 20.527344 2.175781 18.835938 3.191406 16.691406 3.886719 C 14.820312 4.488281 12.46875 4.789062 9.636719 4.789062 C 8.554688 4.789062 7.550781 4.761719 6.628906 4.707031 C 5.765625 4.660156 4.871094 4.601562 3.941406 4.535156 L 3.894531 4.53125 L 3.84375 4.527344 C 2.777344 4.425781 1.714844 4.164062 0.65625 3.746094 C -0.851562 3.148438 -2.089844 2.113281 -3.050781 0.636719 C -3.980469 -0.789062 -4.449219 -2.640625 -4.449219 -4.917969 C -4.449219 -8.226562 -3.652344 -10.710938 -2.058594 -12.363281 C -1.226562 -13.230469 -0.246094 -13.882812 0.871094 -14.316406 C 1.90625 -14.714844 3.027344 -14.914062 4.234375 -14.914062 L 9.152344 -14.914062 L 9.152344 -10.804688 L 5.042969 -10.804688 L 5.042969 -12.21875 L 9.152344 -12.21875 L 9.152344 -8.109375 L 1.476562 -8.109375 L 1.539062 -26.105469 C 1.539062 -26.988281 1.609375 -27.953125 1.742188 -29.003906 C 1.929688 -30.4375 2.402344 -31.796875 3.160156 -33.074219 C 4.035156 -34.554688 5.339844 -35.738281 7.074219 -36.617188 C 8.679688 -37.433594 10.703125 -37.839844 13.144531 -37.839844 Z M 13.144531 -29.625 C 12.015625 -29.625 11.230469 -29.515625 10.792969 -29.292969 C 10.480469 -29.132812 10.292969 -29 10.226562 -28.890625 C 10.042969 -28.582031 9.929688 -28.265625 9.890625 -27.949219 C 9.800781 -27.246094 9.753906 -26.625 9.753906 -26.078125 L 9.707031 -12.203125 L 5.597656 -12.21875 L 5.597656 -16.324219 L 13.257812 -16.324219 L 13.257812 -6.699219 L 4.234375 -6.699219 C 4.046875 -6.699219 3.914062 -6.683594 3.835938 -6.652344 C 3.847656 -6.65625 3.855469 -6.660156 3.859375 -6.667969 C 3.929688 -6.738281 3.976562 -6.800781 4.003906 -6.855469 C 3.984375 -6.816406 3.960938 -6.75 3.933594 -6.652344 C 3.824219 -6.234375 3.765625 -5.65625 3.765625 -4.917969 C 3.765625 -4.484375 3.796875 -4.140625 3.851562 -3.878906 C 3.867188 -3.816406 3.878906 -3.769531 3.890625 -3.742188 C 3.878906 -3.769531 3.859375 -3.804688 3.828125 -3.851562 C 3.851562 -3.8125 3.875 -3.785156 3.890625 -3.765625 L 3.882812 -3.773438 C 3.828125 -3.820312 3.757812 -3.859375 3.675781 -3.894531 C 4.011719 -3.757812 4.328125 -3.679688 4.625 -3.652344 L 4.234375 0.4375 L 4.527344 -3.660156 C 5.417969 -3.59375 6.273438 -3.539062 7.101562 -3.492188 C 7.863281 -3.449219 8.710938 -3.425781 9.636719 -3.425781 C 11.609375 -3.425781 13.121094 -3.59375 14.171875 -3.933594 C 14.945312 -4.183594 15.460938 -4.449219 15.71875 -4.726562 C 15.992188 -5.027344 16.175781 -5.355469 16.265625 -5.71875 C 16.441406 -6.429688 16.53125 -7.167969 16.53125 -7.933594 L 16.53125 -26.089844 C 16.53125 -26.601562 16.480469 -27.199219 16.382812 -27.875 C 16.332031 -28.21875 16.207031 -28.558594 16.007812 -28.890625 C 15.945312 -29 15.757812 -29.132812 15.445312 -29.292969 C 15.007812 -29.515625 14.238281 -29.625 13.144531 -29.625 Z M 20.101562 -1.945312 C 19.019531 -0.476562 17.390625 0.476562 15.214844 0.914062 C 13.8125 1.191406 12.34375 1.332031 10.804688 1.332031 C 9.683594 1.332031 8.585938 1.289062 7.515625 1.195312 C 6.671875 1.125 6.015625 1.089844 5.550781 1.089844 C 6.304688 1.089844 7.003906 0.855469 7.648438 0.390625 C 8.101562 0.0664062 8.460938 -0.339844 8.734375 -0.820312 C 8.957031 -1.21875 9.101562 -1.636719 9.171875 -2.078125 C 9.242188 -2.546875 9.222656 -3.015625 9.113281 -3.488281 C 8.980469 -4.070312 8.722656 -4.589844 8.34375 -5.050781 C 7.824219 -5.679688 7.195312 -6.085938 6.449219 -6.273438 L 5.453125 -2.289062 L 5.453125 -6.394531 C 6.097656 -6.394531 6.945312 -6.359375 7.992188 -6.289062 C 8.859375 -6.230469 9.78125 -6.199219 10.757812 -6.199219 C 11.914062 -6.199219 13.011719 -6.292969 14.058594 -6.476562 C 14.179688 -6.5 14.285156 -6.523438 14.363281 -6.550781 C 14.382812 -6.558594 14.394531 -6.5625 14.40625 -6.566406 C 14.398438 -6.5625 14.390625 -6.558594 14.378906 -6.550781 C 14.183594 -6.445312 14.015625 -6.269531 13.871094 -6.03125 L 17.378906 -3.894531 L 13.8125 -5.933594 C 13.722656 -5.773438 13.65625 -5.597656 13.617188 -5.40625 C 13.6875 -5.757812 13.769531 -6.101562 13.867188 -6.433594 L 17.816406 -5.304688 L 13.804688 -6.195312 C 13.734375 -5.875 13.710938 -5.542969 13.738281 -5.195312 C 13.789062 -4.53125 14 -3.917969 14.375 -3.355469 C 14.816406 -2.695312 15.402344 -2.214844 16.132812 -1.914062 C 16.585938 -1.730469 17.050781 -1.636719 17.523438 -1.636719 C 18.339844 -1.636719 19.078125 -1.886719 19.746094 -2.386719 C 20.363281 -2.851562 20.792969 -3.4375 21.03125 -4.152344 L 20.992188 -4.039062 L 20.949219 -3.925781 C 20.992188 -4.039062 21.023438 -4.144531 21.039062 -4.242188 C 20.921875 -3.535156 20.679688 -2.875 20.316406 -2.269531 L 20.214844 -2.101562 Z M 13.488281 -6.816406 L 16.792969 -4.382812 L 13.273438 -6.496094 C 13.101562 -6.210938 12.988281 -5.910156 12.9375 -5.589844 C 13.019531 -6.078125 13.144531 -6.539062 13.320312 -6.976562 L 17.132812 -5.453125 L 13.238281 -6.75 C 13.539062 -7.660156 14.066406 -8.394531 14.816406 -8.957031 C 15.609375 -9.554688 16.515625 -9.851562 17.523438 -9.851562 C 18.128906 -9.851562 18.699219 -9.738281 19.242188 -9.519531 C 20.0625 -9.183594 20.71875 -8.648438 21.210938 -7.914062 C 21.632812 -7.277344 21.875 -6.574219 21.929688 -5.800781 C 21.964844 -5.34375 21.929688 -4.882812 21.824219 -4.414062 L 21.800781 -4.296875 L 21.765625 -4.175781 C 21.730469 -4.058594 21.699219 -3.929688 21.671875 -3.792969 C 21.539062 -3.117188 21.292969 -2.46875 20.945312 -1.855469 L 20.914062 -1.808594 L 20.886719 -1.757812 C 19.789062 0.0429688 17.992188 1.167969 15.492188 1.609375 C 13.972656 1.878906 12.394531 2.015625 10.757812 2.015625 C 9.59375 2.015625 8.488281 1.980469 7.4375 1.90625 C 6.574219 1.847656 5.910156 1.820312 5.453125 1.820312 L 4.945312 1.820312 L 4.457031 1.695312 C 3.449219 1.445312 2.632812 0.9375 2 0.171875 C 1.566406 -0.359375 1.269531 -0.957031 1.113281 -1.625 C 0.984375 -2.183594 0.964844 -2.75 1.050781 -3.324219 C 1.136719 -3.871094 1.3125 -4.382812 1.578125 -4.859375 C 1.898438 -5.421875 2.316406 -5.890625 2.839844 -6.269531 C 3.632812 -6.839844 4.535156 -7.125 5.550781 -7.125 C 6.25 -7.125 7.136719 -7.078125 8.207031 -6.988281 C 9.050781 -6.917969 9.917969 -6.882812 10.804688 -6.882812 C 11.800781 -6.882812 12.734375 -6.96875 13.601562 -7.144531 C 13.777344 -7.179688 13.886719 -7.207031 13.929688 -7.230469 C 13.777344 -7.148438 13.628906 -7.011719 13.488281 -6.816406 Z M 13.433594 -34.871094 C 14.636719 -34.871094 15.808594 -34.675781 16.949219 -34.285156 C 18.164062 -33.875 19.308594 -33.203125 20.390625 -32.277344 L 17.71875 -29.15625 L 19.554688 -32.832031 C 19.042969 -33.089844 18.511719 -33.214844 17.960938 -33.214844 C 17.238281 -33.214844 16.566406 -33.015625 15.949219 -32.617188 C 15.316406 -32.210938 14.851562 -31.671875 14.550781 -30.996094 C 14.140625 -30.074219 14.101562 -29.132812 14.441406 -28.175781 C 14.679688 -27.503906 15.0625 -26.957031 15.589844 -26.535156 L 15.488281 -26.617188 L 15.394531 -26.703125 C 15.109375 -26.964844 14.847656 -27.132812 14.617188 -27.207031 C 14.261719 -27.328125 13.882812 -27.386719 13.484375 -27.386719 C 12.867188 -27.386719 12.128906 -27.261719 11.265625 -27.011719 L 10.125 -30.960938 L 13.898438 -32.578125 L 14.191406 -31.894531 L 10.417969 -30.277344 L 9.15625 -34.1875 C 10.570312 -34.644531 12 -34.871094 13.433594 -34.871094 Z M 13.433594 -26.65625 C 12.859375 -26.65625 12.273438 -26.5625 11.679688 -26.367188 L 8.117188 -25.21875 L 4.519531 -33.613281 L 8.984375 -34.90625 C 10.589844 -35.371094 12.089844 -35.601562 13.484375 -35.601562 C 14.773438 -35.601562 16.015625 -35.402344 17.214844 -35 C 18.542969 -34.558594 19.777344 -33.820312 20.917969 -32.78125 L 18.15625 -29.742188 L 20.722656 -32.949219 C 21.414062 -32.394531 21.902344 -31.714844 22.1875 -30.910156 C 22.574219 -29.8125 22.53125 -28.730469 22.054688 -27.660156 C 21.691406 -26.839844 21.136719 -26.1875 20.390625 -25.710938 C 19.65625 -25.238281 18.847656 -25 17.960938 -25 C 17.21875 -25 16.523438 -25.164062 15.882812 -25.484375 L 15.429688 -25.710938 L 15.046875 -26.039062 C 14.765625 -26.28125 14.515625 -26.4375 14.300781 -26.511719 C 14.015625 -26.609375 13.726562 -26.65625 13.433594 -26.65625 Z M 6.046875 -0.933594 C 6.351562 -1.390625 6.535156 -1.914062 6.601562 -2.503906 C 6.664062 -3.066406 6.605469 -3.617188 6.425781 -4.15625 C 6.230469 -4.738281 5.917969 -5.246094 5.484375 -5.679688 L 5.691406 -5.472656 L 5.867188 -5.238281 C 5.707031 -5.453125 5.511719 -5.652344 5.28125 -5.835938 C 4.570312 -6.402344 3.75 -6.6875 2.824219 -6.6875 C 2.285156 -6.6875 1.773438 -6.578125 1.277344 -6.359375 C 0.800781 -6.148438 0.382812 -5.855469 0.0273438 -5.472656 C -0.382812 -5.035156 -0.660156 -4.542969 -0.804688 -4.003906 C -0.878906 -3.71875 -0.917969 -3.417969 -0.917969 -3.105469 C -0.917969 -2.464844 -0.765625 -1.859375 -0.460938 -1.285156 C -0.046875 -0.511719 0.554688 0.0585938 1.347656 0.433594 C 1.867188 0.675781 2.40625 0.796875 2.96875 0.796875 C 3.667969 0.796875 4.316406 0.601562 4.90625 0.203125 L 2.628906 -3.210938 Z M -0.789062 -5.492188 L -0.332031 -6.175781 L 0.351562 -6.628906 C 1.136719 -7.15625 2.011719 -7.417969 2.96875 -7.417969 C 3.628906 -7.417969 4.25 -7.28125 4.835938 -7.007812 C 5.691406 -6.605469 6.34375 -5.984375 6.789062 -5.152344 C 7.328125 -4.140625 7.441406 -3.050781 7.132812 -1.886719 C 6.921875 -1.101562 6.558594 -0.429688 6.03125 0.132812 C 5.621094 0.570312 5.140625 0.914062 4.59375 1.15625 C 4.03125 1.402344 3.441406 1.527344 2.824219 1.527344 C 1.832031 1.527344 0.9375 1.210938 0.148438 0.578125 C -0.164062 0.328125 -0.449219 0.03125 -0.707031 -0.308594 L 2.578125 -2.773438 L -0.324219 0.128906 C -0.804688 -0.351562 -1.152344 -0.914062 -1.367188 -1.558594 C -1.570312 -2.160156 -1.632812 -2.777344 -1.5625 -3.410156 C -1.480469 -4.144531 -1.222656 -4.839844 -0.789062 -5.492188 Z M 9.101562 -26.121094 C 9.609375 -26.121094 10.097656 -26.222656 10.570312 -26.425781 C 11.179688 -26.6875 11.683594 -27.078125 12.089844 -27.597656 C 12.609375 -28.265625 12.871094 -28.996094 12.871094 -29.789062 L 8.761719 -29.789062 L 12.660156 -31.089844 C 12.449219 -31.710938 12.089844 -32.246094 11.570312 -32.691406 C 10.855469 -33.300781 10.035156 -33.605469 9.101562 -33.605469 C 8.1875 -33.605469 7.375 -33.296875 6.664062 -32.675781 C 5.964844 -32.0625 5.554688 -31.3125 5.425781 -30.421875 L 9.492188 -29.839844 L 5.386719 -29.839844 L 5.386719 -29.886719 L 9.492188 -29.886719 L 5.425781 -29.308594 C 5.554688 -28.414062 5.964844 -27.664062 6.664062 -27.050781 C 7.375 -26.433594 8.1875 -26.121094 9.101562 -26.121094 Z M 9.101562 -34.335938 C 10.246094 -34.335938 11.234375 -33.96875 12.074219 -33.234375 C 12.902344 -32.507812 13.398438 -31.585938 13.558594 -30.46875 L 13.597656 -30.179688 L 13.597656 -29.546875 L 13.558594 -29.257812 C 13.398438 -28.140625 12.902344 -27.21875 12.074219 -26.492188 C 11.234375 -25.757812 10.246094 -25.390625 9.101562 -25.390625 C 8.007812 -25.390625 7.046875 -25.746094 6.222656 -26.453125 C 5.589844 -26.996094 5.136719 -27.675781 4.867188 -28.492188 L 4.65625 -29.125 L 4.65625 -29.789062 C 4.65625 -30.875 4.972656 -31.828125 5.605469 -32.640625 C 6.066406 -33.234375 6.644531 -33.679688 7.335938 -33.976562 C 7.894531 -34.214844 8.484375 -34.335938 9.101562 -34.335938 Z M 9.101562 -34.335938 "/></g></g></g><g fill="#42ff00" fill-opacity="1"><g transform="translate(5.573187, 39.301703)"><g><path d="M 13.140625 -33.734375 C 14.890625 -33.734375 16.273438 -33.472656 17.296875 -32.953125 C 18.328125 -32.429688 19.078125 -31.769531 19.546875 -30.96875 C 20.015625 -30.175781 20.3125 -29.34375 20.4375 -28.46875 C 20.570312 -27.59375 20.640625 -26.800781 20.640625 -26.09375 L 20.640625 -7.9375 C 20.640625 -6.832031 20.507812 -5.757812 20.25 -4.71875 C 19.988281 -3.675781 19.484375 -2.75 18.734375 -1.9375 C 17.992188 -1.132812 16.890625 -0.492188 15.421875 -0.015625 C 13.960938 0.453125 12.035156 0.6875 9.640625 0.6875 C 8.628906 0.6875 7.703125 0.660156 6.859375 0.609375 C 6.015625 0.554688 5.140625 0.5 4.234375 0.4375 C 3.554688 0.375 2.867188 0.207031 2.171875 -0.0625 C 1.472656 -0.34375 0.878906 -0.851562 0.390625 -1.59375 C -0.0976562 -2.34375 -0.34375 -3.453125 -0.34375 -4.921875 C -0.34375 -7.117188 0.0664062 -8.648438 0.890625 -9.515625 C 1.722656 -10.378906 2.835938 -10.8125 4.234375 -10.8125 L 9.15625 -10.8125 L 9.15625 -12.21875 L 5.59375 -12.21875 L 5.640625 -26.09375 C 5.640625 -26.800781 5.695312 -27.59375 5.8125 -28.46875 C 5.925781 -29.34375 6.21875 -30.175781 6.6875 -30.96875 C 7.15625 -31.769531 7.898438 -32.429688 8.921875 -32.953125 C 9.953125 -33.472656 11.359375 -33.734375 13.140625 -33.734375 Z M 16.796875 -4.375 C 16.335938 -3.757812 15.539062 -3.335938 14.40625 -3.109375 C 13.269531 -2.890625 12.070312 -2.78125 10.8125 -2.78125 C 9.800781 -2.78125 8.816406 -2.816406 7.859375 -2.890625 C 6.898438 -2.972656 6.128906 -3.015625 5.546875 -3.015625 C 5.285156 -3.015625 5.140625 -2.910156 5.109375 -2.703125 C 5.078125 -2.492188 5.191406 -2.351562 5.453125 -2.28125 C 6.003906 -2.28125 6.757812 -2.25 7.71875 -2.1875 C 8.675781 -2.125 9.6875 -2.09375 10.75 -2.09375 C 12.144531 -2.09375 13.484375 -2.207031 14.765625 -2.4375 C 16.046875 -2.664062 16.914062 -3.148438 17.375 -3.890625 C 17.507812 -4.117188 17.597656 -4.351562 17.640625 -4.59375 C 17.691406 -4.84375 17.75 -5.082031 17.8125 -5.3125 C 17.875 -5.601562 17.773438 -5.75 17.515625 -5.75 C 17.328125 -5.75 17.195312 -5.648438 17.125 -5.453125 C 17.0625 -5.285156 17.015625 -5.101562 16.984375 -4.90625 C 16.953125 -4.71875 16.890625 -4.539062 16.796875 -4.375 Z M 13.4375 -30.765625 C 14.175781 -30.765625 14.898438 -30.640625 15.609375 -30.390625 C 16.328125 -30.148438 17.03125 -29.738281 17.71875 -29.15625 C 17.78125 -29.125 17.859375 -29.109375 17.953125 -29.109375 C 18.117188 -29.109375 18.234375 -29.179688 18.296875 -29.328125 C 18.359375 -29.472656 18.3125 -29.609375 18.15625 -29.734375 C 17.4375 -30.390625 16.6875 -30.84375 15.90625 -31.09375 C 15.132812 -31.351562 14.328125 -31.484375 13.484375 -31.484375 C 12.472656 -31.484375 11.351562 -31.304688 10.125 -30.953125 L 10.421875 -30.28125 C 11.421875 -30.601562 12.425781 -30.765625 13.4375 -30.765625 Z M 2.625 -3.21875 C 2.5 -3.019531 2.484375 -2.875 2.578125 -2.78125 C 2.671875 -2.644531 2.753906 -2.578125 2.828125 -2.578125 C 2.984375 -2.578125 3.09375 -2.695312 3.15625 -2.9375 C 3.226562 -3.1875 3.164062 -3.3125 2.96875 -3.3125 C 2.84375 -3.3125 2.726562 -3.28125 2.625 -3.21875 Z M 9.109375 -30.21875 C 8.878906 -30.21875 8.765625 -30.070312 8.765625 -29.78125 C 8.828125 -29.59375 8.941406 -29.5 9.109375 -29.5 C 9.328125 -29.5 9.453125 -29.609375 9.484375 -29.828125 L 9.484375 -29.890625 C 9.453125 -30.109375 9.328125 -30.21875 9.109375 -30.21875 Z M 9.109375 -30.21875 "/></g></g></g></g></g></svg>